<?xml version="1.0" encoding="utf-8"?>
<!-- Variante contour (à vide) de blessure-fleur.svg : même silhouette, tracé rose sans remplissage. -->
<svg xmlns="http://www.w3.org/2000/svg" viewBox="0 0 829.5 775.5">
<path fill="none" stroke="#e46fa0" stroke-width="55" stroke-linejoin="round" stroke-linecap="round" d="M824.9,300.7c-51.5-29.3-51.2-92.4-51.2-92.4c-126.9-67.7-220.7,27.1-238.8,47.5C611.3,141.5,474.1,7,474.1,7
	c-51.2,29.7-105.7-2.3-105.7-2.3C246.5,80,280.5,208.1,289.1,234.6c-88.6-99-252.1-8.7-252.1-8.7C50.8,283.5,4.5,326.5,4.5,326.5
	c35.6,132.4,166.8,141.8,204.3,141.8c-112.5,72.1-47.9,248.3-47.9,248.3c59-4.8,94.4,47.4,94.4,47.4
	c133.6-14.7,163.3-130.2,169.4-167.3c-8.3,129.1,182.4,174.2,182.4,174.2c28-52.2,91.2-53.5,91.2-53.5c73-145.3-33.9-224-54.5-238.7
	C778.5,483.8,824.9,300.7,824.9,300.7L824.9,300.7z"/>
</svg>
