<svg id="Calque_1" data-name="Calque 1" xmlns="http://www.w3.org/2000/svg" viewBox="0 0 283.46 283.46"><defs><style>.cls-1{fill:#f4d3d6;}.cls-2{fill:#f5c2cb;}</style></defs><path class="cls-1" d="M121.39,21.85s-12.13,14.93-12.31,24.37S112,88.58,112,88.58s-3,3-2.87,2.27S89.82,79.2,79.34,79.72,47.69,90.18,44.72,91s-3.11,1.54-2.8,4.18-7.18,11-5.78,13.12,2.92,9-.18,12.09-8.15,1.4-7.38,7.84,7.1,28.51,23.12,32.17,33.36,9.13,42.89,6,7.31,5.5,7.31,5.5-12.09,13.94-13.46,23.64-1.28,26.6,2.81,38.63,8.31,20.65,9.6,18.74,4.32-6.85,5.73-7.43,2.57-.1,4.21,4.35,6.55,17.43,8.78,17.9,8.62,2.22,10.74-.82,14.55-9.08,15.85-12.4,11.71-18.64,12.23-20.34,12.24-24.18,12.24-24.18l3-.42s20.83,14,26.15,14.84,22.9,3.42,24.76,3.53,4,.26,4.38,0,1.74-3.21,3.67-4.55,5.85-4.56,7.68-5.4,2.94-.08,2.94-2.14-1.68-11.45-1.68-11.45l1.68-2.66,4.48-2.4s1.12-8.16,0-11.49-8.57-18-9.89-18.95-14.34-14.48-14.34-14.48l9.1-5.07s21.52-8.77,21.47-8.77-4.38-10-5.5-13.92,1.4-4.92-2.66-8.41-9.53-9.47-2.66-16.78-6.93-12.75-7.71-14.33-11.69-6.42-19.57-7.19-31.51,7.8-36,8.7-23.6,13.85-25.11,14.76-.53-4.74,0-5.36S171,82.36,170,81.77s14.93-18.63,15.49-26.48.86-18.43-5-22.31-12.41-14.67-18.16-15.09-15.19,5.89-19.43,4.21a8.41,8.41,0,0,0-7.74,1l-4.48,3.64S122.71,13.9,121.39,21.85Z"/><path class="cls-2" d="M171.3,45.29c-1.82,7.37-9.9,14.52-14.75,20-6.05,6.81-12.31,13.45-18.61,20-4.33,4.53-5.05,12.15-2.62,17.81,1.93,4.49,7.31,8.84,11.77,4.37,15.61-15.68,35.58-33.42,40.35-55.89,2.84-13.38-12.18-22.41-16.14-6.31Z"/><path class="cls-2" d="M40.74,150c9.16,13.27,22,21,38.35,20.88a72.25,72.25,0,0,0,23.7-4.15c8.15-2.9,14.77-8.24,23.71-8.45,12.35-.3,9-21.42,1.66-25.84-11.16-6.72-25.27,7.29-35.79,10.82-13.34,4.48-32.44,3.07-42.06-8.64-8.42-10.26-14.52,8.2-9.57,15.38Z"/><path class="cls-2" d="M151.82,188.08c4.69,5.13-3.13,28-5.26,33.43-4,10.18-11,16.76-20.27,22.19-6.56,3.83-7.94,24.77,2.63,23.12,20.19-3.16,30.45-23.52,35-41.6,4.53-17.88,10.77-43-5.08-57-4.11-3.61-8.55.29-10.11,4.33a15.13,15.13,0,0,0,3.06,15.49Z"/><path class="cls-2" d="M156.81,165.93c3.57,10.49,8.05,20.84,11.13,31.59,1.3,4.52,4.5,10.59,10.21,8.4,5.5-2.11,6.2-10.62,5.31-15.37a98.31,98.31,0,0,0-6.54-21.26,85.6,85.6,0,0,0-4.73-9.55c-1.89-3.16-4.4-4.91-6.94-7.38s-6.06-.8-7.73,1.72c-2.3,3.44-2,8.13-.71,11.85Z"/><path class="cls-2" d="M164.76,162.53c17,10.8,32.42,15.79,52.34,9.59,8.36-2.61,7-23.56-2.62-23.05-7.69.41-15.21,2.39-23,2s-15.09-3.19-22.33-6.11c-8.22-3.31-9.94,14.09-4.42,17.61Z"/><path class="cls-2" d="M227.5,224.2a25.3,25.3,0,0,1,5.2-5.82c2.4-1.89,4.75-2.89,6.54-5.52,4.73-6.94,3.79-15.25,1.39-22.79-1-3.16-4.55-6.12-7.94-4.66-3.67,1.59-4.94,6.72-4.83,10.3,0,1.64-.67,5.62.64,1.78.87-2.54.35-1-.5-.21s-1.54,1.68-2.29,2.49a52.68,52.68,0,0,0-7.8,10.57c-2.31,4.2-2.51,10,.34,14.09,2.64,3.72,6.77,3.42,9.25-.23Z"/><path d="M255.28,141.76l-29.23,11.81c8.34,8.11,16.29,16.41,20.69,27.21,2.17,5.31,3.34,11,4.7,16.65.17.69-1.07,2.12-2,2.62-2.4,1.3-5,2.28-7,3.17.62,4.32,1.3,8.5,1.79,12.7.3,2.6-.94,3.63-3.62,3.19-1.61-.27-3.31,0-5-.1-.74,0-1.88-.25-2.11-.72-3.12-6.45-9.43-9.82-14.08-14.77a14.74,14.74,0,0,1-2.85-4.88c5.11,4.72,10.66,9.05,15.17,14.29,3,3.48,6.1,2.76,10.76,2.84-1.39-5.31-2.66-10.12-3.92-14.94,9-1.37,10-2,7.85-10.53a61,61,0,0,0-8.33-18.61c-4-5.89-9.57-10.68-14.58-15.83a3.71,3.71,0,0,0-3-.74c-7.62,1.67-15,4.78-23.05,4-8.51-.75-16.75-2.21-24.35-6.42-3.44-1.91-7.16-3.32-10.72-5s-4.47-4.14-3-5.73a68.72,68.72,0,0,0,6.79,4.89c11.31,6.27,23.32,10.74,36.41,9.62,7-.59,14-2.63,20.73-4.86,10-3.3,19.7-7.36,29.55-11.05a6,6,0,0,1,2,0Z"/><path d="M164.28,178.07A12.66,12.66,0,0,1,172,187a73.81,73.81,0,0,1,1.58,17.1c-.05,2.35.26,3.95,2,4.93,7.54,4.29,14.86,9.24,22.88,12.32,8.31,3.19,17.32,4.53,26.05,6.59a16.27,16.27,0,0,0,3.63,0c-.11-4.41,1.15-5.27,6.84-4.29l-6.07,3.1,4.4.63a5.83,5.83,0,0,1-.84.73c-4.71,2.4-9.56,1.4-14.39.54-7.15-1.27-14.31-2.47-21.4-4-2.21-.49-4.26-1.87-6.26-3-6-3.56-12-7.22-17.94-10.82-8.32,17.59-17.15,35.22-31.7,49.36.15-.53.14-1.21.48-1.56,7.92-8.27,13.3-18.25,18.74-28.15,3.24-5.9,6.59-11.87,8.83-18.18C173.05,200.35,172.73,188.72,164.28,178.07Z"/><path d="M133,142.64l3.49,1.41.53,1.12-6.39,3.42c-1.21-2.93-4.22-.78-6.45-2.38,4-1.13,2.82-3.62,1.8-5.9-4-9-9.86-16.37-18.94-20.78a7.74,7.74,0,0,1-1.1-.47,7.5,7.5,0,0,1-2.49-2.77c.95,0,2.08-.34,2.83,0,11.27,5.81,19.78,14.11,23,27l1.3-.54c-1.27-6-1.78-12.21-4-17.78-2.14-5.35-6.07-10-9.22-14.94l1-.72,18.56,21.5c-.36-6.79-.67-12.5-1-18.14,2.23.14,3.65,2.19,3.21,6.27-.57,5.1-1.54,10.14-2.25,15.22a5.7,5.7,0,0,0,.52,2l1.11.08,2.58-14.84,1.84.35c-.92,4.91-1.75,9.85-2.86,14.72-.22,1-1.49,1.7-2.28,2.54a15.4,15.4,0,0,1-2.52-2.87c-1.51-3-2.79-6.16-4.16-9.25l-1,.31C131,132.25,132,137.24,133,142.64Z"/><path d="M152.48,100.68c8.2-9.79,16.71-19.34,24.5-29.45,5.49-7.14,9.1-15.5,8-24.76-.42-3.53-2.57-7.27-4.94-10.07A182.29,182.29,0,0,0,165.72,22c-1.57-1.48-3.71-2.36-6-3.79l3.75-1.52.86-.77c6.42,6.78,13,13.43,19.2,20.39,7,7.84,4.4,16.36,1.32,24.92-2.62,7.3-7.5,13-12.42,18.72-5.86,6.78-12.07,13.26-18.15,19.85a10.58,10.58,0,0,1-1.48,1.17Z"/><path d="M32.55,145.9c11.38,9.38,23.39,16.92,37.5,18.46,10.53,1.15,21.47,3.27,32.16-.39l.36,1.24c-2.26.69-4.51,1.92-6.78,2-8.39.22-16.8.26-25.18,0s-15.94-3.45-23-7.67a124.71,124.71,0,0,1-12.94-9C33.46,149.62,33.23,147.48,32.55,145.9Z"/><path d="M239.12,88.37c-6.26-2.16-12-4.57-17.94-6a40.44,40.44,0,0,0-12.71-.83c-18.71,1.5-34.83,9.63-49.79,20.37-2.35,1.68-4.22,4-6.31,6.08l-1.16-1c1.46-1.75,2.63-3.93,4.43-5.19,13.71-9.6,28-18.25,44.81-21.06C214.12,78.43,227.3,79.71,239.12,88.37Z"/><path d="M122.6,21.34a29.62,29.62,0,0,1-1.32,2.86c-3.8,6.46-7.66,12.89-11.44,19.37a6,6,0,0,0-.76,2.65c-.49,13.28-.17,26.49,3.69,39.37a14.66,14.66,0,0,1,.31,2.68l-1.13.31c-1.23-4.45-3.11-8.83-3.56-13.35a237,237,0,0,1-1.52-29.15c.09-3.93,2.64-8,4.71-11.63,2.76-4.88,6.15-9.4,9.27-14.08Z"/><path d="M34.66,107.68c8.41-8.82,8.87-10.34,3-15.43,1.34-.71,2.57-1.34,3.78-2C45.24,88.12,49,86,52.89,83.9c2.25-1.2,2.3-1.12,4.75,2.2L49,89.46a15.11,15.11,0,0,1-2.22.8c-3.27.67-4,2.13-3.65,5.75.26,3-1.93,6.4-3.39,9.46s-.74,4.5,2.53,5.09c4.44.8,8.87,1.71,13.3,2.58l-.1,1c-.66,0-1.31.13-2,.1-4.16-.16-8.33-.63-12.47-.46C36.73,114,35.26,111.6,34.66,107.68Z"/><path d="M249.71,98.19c-2.33,2.08-5,3.87-6.91,6.3-4.26,5.55-3.52,7.85,2.68,11,2.49,1.29,5.82,2,3.58,6.43-.66,1.33,1.16,3.88,1.8,5.88,1.13,3.53-2.09,6.85-6,6.25-.07-.22-.26-.57-.2-.63,2.83-2.52,4.67-5,2.16-9.05-1.76-2.85-1.41-7-5.5-8.41-3-1-3.66-3.55-3.48-6.46.25-4.13,5.22-11.11,9-12.39a9.14,9.14,0,0,1,2.77,0Z"/><path d="M68.45,143.85c2.6,3.46,5.85,4.38,9,4.66,6.5.56,13.06.52,19.59.94,5.69.36,11.36,1,17,1.52,1.33.11,2.68-.06,4,0,.91,0,1.82.17,2.73.26-.12.84,0,2.06-.44,2.44a4.65,4.65,0,0,1-3.11,1c-6.36-.84-12.67-2.11-19-2.78-7.66-.8-15.41-.87-23.05-1.83-2.37-.29-4.57-2.33-6.7-3.79C68.12,146,68.45,144.69,68.45,143.85Z"/><path d="M101.35,168.83c3.06.93,3.68,2.11,1.48,4.24-11.9,11.52-15.31,25.79-13.72,41.81.45,4.52.07,9.13.07,14.83-2.79-11.39-2.5-22-1.55-32.45C88.63,186.25,96.29,178.21,101.35,168.83Z"/><path d="M84.4,125.51c8.32,2.88,16.84,5.32,24.93,8.75,8.59,3.64,12.52,12.27,17.45,19.3l-11.31,9.78c.94-5.15,4.59-7.39,8.29-9.87-3.63-9.75-10.61-15.92-20.11-19.43-6.52-2.4-13.12-4.57-19.68-6.84Z"/><path d="M202.45,131.85a32.53,32.53,0,0,1-4.21,2.46c-9,3.64-18.37,6.56-28.14,5.19-4.9-.69-9.54-3.37-14.22-5.34-.62-.26-.76-1.67-1.12-2.55.92,0,2.16-.43,2.71,0,9,7.22,19.06,6.71,29.38,4,5.13-1.32,10.21-2.86,15.31-4.3Z"/><path d="M196.52,183.66c-13.24-8.2-26.32-16.33-39.46-24.38-.44-.26-1.43.38-2.09.58-1.46-4-2.86-7.76-4.26-11.58l1.57-.67c1.47,3,2.93,6,4.48,9.24C158.93,156.64,193.42,179.45,196.52,183.66Z"/><path d="M149.1,220.63c2.09-9.44,4-18.55,6.15-27.59,2.15-8.89.73-17.68-.93-26.5C162.56,175.75,157,204.51,149.1,220.63Z"/><path d="M128.43,100.6c-.07.22.19-.5.42-1.23.69-2.18,1.2-4.63,4.33-4.15,2.07.32,3.84,4.35,3.43,7.06-.51,3.32-2.81,3.3-5.34,3.25a8.82,8.82,0,0,0-3.54.58c-1.85.79-3.83,2.22-5.07-.38-.54-1.11-.37-3.48.4-4.07C124.2,100.78,126.17,101,128.43,100.6Z"/><path d="M105.76,161.8c-13.9,4.45-49.38-1.48-50.62-9.74C70.82,161.55,88.29,161.64,105.76,161.8Z"/><path d="M144.08,94.79c7.74-14,10-29.43,12.56-44.83a10.74,10.74,0,0,1,1.84-.11C157.22,66.09,153.47,81.29,144.08,94.79Z"/><path d="M138,216.07c-1.47,5-2.79,10.14-4.43,15.13-3.22,9.79-6.6,19.52-10,29.26a12,12,0,0,1-1.42,2.26c-.28-1-1-2.18-.77-3,2-5.61,4.21-11.11,6.19-16.72,3.07-8.68,6-17.41,9-26.11a6.26,6.26,0,0,1,.69-1.12Z"/><path d="M79.88,88c7.48-5,33.47,12.48,35.64,25-4-6.62-8.75-12.54-15.66-16.07C93.26,93.55,86.34,90.82,79.88,88Z"/><path d="M62.58,79.84c11-2.19,21.75.16,32.42,2.69,7,1.65,13.32,4.71,17.06,11.53C97.85,81.1,80.14,81,62.58,79.84Z"/><path d="M114.42,260.89c-5.35-3.88-3.58-10.09-6.84-15a71.64,71.64,0,0,0-4.85,6c-1.06,1.6-2.18,4-4,2.25-1.34-1.35-3.88-3.87-1.25-7.21l2.71,4.1a35.23,35.23,0,0,1,3.74-4.46c3.41-2.9,6.29-2,7.78,2.24,1.07,3.07,2.22,6.13,3.19,9.24C115.12,258.64,114.69,259.48,114.42,260.89Z"/><path d="M140.57,20.46c2.4-.81,4.76-2.72,6,2-3.21-2.16-5.8,4.26-8.78-.54-1.15,1.52-2.24,3.2-3.57,4.64-2.26,2.45-4.47,2.28-5.76-.7-.76-1.77-4.24-4.06-1.27-5.59,3.59-1.86,2.07,3,3.61,4.17.27.21.39.63,1.05,1.78L140,14.19l.91.47C140.79,16.43,140.7,18.2,140.57,20.46Z"/><path d="M186.17,202.47c13.29,6,24.25,17.16,40.33,17.9-1.56.3-3.24,1.13-4.66.8-4.28-1-8.77-1.87-12.62-3.86-7.09-3.69-13.81-8.11-20.63-12.3A14,14,0,0,1,186.17,202.47Z"/><path d="M140.81,148c5-3.22,3.48-12.24,10.37-16-1.35,3.33-2.11,7.1-4.19,9.9-3.12,4.22-2.36,8.66-2.27,13.17.06,3.08.27,6.15.41,9.23l-1.56.2c-.44-2.68-.87-5.36-1.32-8S141.39,151.4,140.81,148Z"/><path d="M117.47,176.13c-3.3,14.43-6.55,28.61-9.89,43.18C106.41,210,113.4,179.52,117.47,176.13Z"/><path d="M224.94,136.91c-9.45,6.06-19.2,11.46-30.92,10.85a17.85,17.85,0,0,1-5.77-1.16c-1.07-.45-1.71-1.91-2.14-3.41,7.75,5.86,15.33,1.77,22.61-.05C214.3,141.75,219.55,139,224.94,136.91Z"/><path d="M150.05,122.74c.65-.8,1.15-2,2-2.3,4-1.28,8.06-2.26,12.08-3.42,8.53-2.46,17-5,25.56-7.44l.26,1L150.73,123.8Z"/><path d="M122.59,200.07c3.71-13,8-25.8,13.89-37.95l1.56.34a9.53,9.53,0,0,1-.26,3.1C132.77,177.09,127.67,188.57,122.59,200.07Z"/><path d="M138,41.2c1,11.47,2,22.94-.12,34.37h-1.19V41.07Z"/><path d="M204.19,116.3c10.79.89,21.35-3.73,32.28.15l-32.33,1.73Z"/><path d="M145,173.36,134.57,202.9l-1.2-.41q4.74-14.91,9.46-29.84Z"/><path d="M128.54,89.35l-.66-9.25c-.34-5-.57-10-1.1-15-.14-1.33-1.3-2.53-1.76-3.87a7,7,0,0,1,0-2.42c.61.45,1.55.78,1.78,1.39a23.44,23.44,0,0,1,1.94,6.36c.6,7.5.9,15,1.31,22.53Z"/><path d="M230.4,96.61l-30.07,4.79c.35-1.61.4-2.53.57-2.55,9.77-1.16,19.55-2.24,29.34-3.33Z"/><path d="M141.17,139.57c2.29-9.06,4.59-18.12,7.09-28C149.77,122.42,146.12,131.15,141.17,139.57Z"/><path d="M234.42,130.16c-13.86,6-16.89,6.64-20.51,3.46l20.36-4.47Z"/><path d="M120.16,222.81l-7.23,22.62-1.18-.37C111.61,236.7,116.2,229.8,120.16,222.81Z"/><path d="M206.93,170.54c1.6-1,2.21-1.68,2.44-1.56,5.51,2.79,11.12,5.44,16.37,8.65,2.09,1.27,3.38,3.84,4.63,6.1-3.5-2.43-6.85-5.12-10.54-7.21C216,174.36,211.83,172.78,206.93,170.54Z"/><path d="M43.76,99.69c.78-1,1.61-2.79,2.32-2.74,7.5.48,15,1.27,22.47,2-.06.53-.12,1.07-.17,1.6-4-.44-8.08-1.07-12.14-1.25-3.89-.17-8.12-3-11.58,1.43Z"/><path d="M120.5,267l10.08-1.13c.55-2.38,1.08-4.71,1.71-7.44,1.64,3.95,1.52,8.71-.89,9.64-2.92,1.13-6.42.88-9.68.92C121.23,269,120.72,267.38,120.5,267Z"/><path d="M150.33,102.08c-4.73,2.57-5,3.08-4.15,7.11l3.95-4.6c-.27,3.5-1,7.28-5,6.41-3.1-.66-2.18-3.73-1.22-6C145.24,101.87,147.71,100.68,150.33,102.08Z"/><path d="M52.7,137.33c-5.87-2.75-11.76-5.49-17.6-8.32-.34-.17-.28-1.15-.4-1.76.6-.11,1.38-.54,1.78-.31,5.55,3.19,11,6.47,16.55,9.73Z"/><path d="M201.83,92.72,183.2,98.11l-.35-1c5.79-3.13,12.34-3.92,18.69-5.36Z"/><path d="M28.58,125.94c.48-1.31.86-3.07,1.14-3.06,4.73.24,4.85-3.1,4.94-6.53l1-.26a8.06,8.06,0,0,1,1.22,2.53C37.14,121.71,34.17,124.4,28.58,125.94Z"/><path d="M138,150.77c.89,5.06-3.37,4.79-5.17,7.17l-1.27-1.4Z"/></svg>
